<?xml version="1.0" encoding="iso-8859-1"?>
<!-- Uploaded to: SVG Repo, www.svgrepo.com, Generator: SVG Repo Mixer Tools -->
<svg height="800px" width="800px" version="1.1" id="Layer_1" xmlns="http://www.w3.org/2000/svg" xmlns:xlink="http://www.w3.org/1999/xlink" 
	 viewBox="0 0 504.127 504.127" xml:space="preserve">
<circle style="fill:#FFAA00;" cx="252.064" cy="252.062" r="252.062"/>
<path style="fill:#FF8500;" d="M430.295,73.83c98.438,98.43,98.438,258.032,0,356.462c-98.43,98.446-258.032,98.446-356.462,0"/>
<path style="fill:#064E7F;" d="M252.064,175.695c11.043,0,21.748,1.481,32.004,4.049l52.531-115.121
	c-22.867-19.22-52.326-30.854-84.535-30.854s-61.676,11.634-84.535,30.846l52.523,115.121
	C230.307,177.168,241.012,175.695,252.064,175.695z"/>
<path style="fill:#0B3A60;" d="M220.052,179.736c10.264-2.568,20.96-4.049,32.012-4.049c11.043,0,21.748,1.481,32.004,4.049
	l52.531-115.121c-22.867-19.212-52.326-30.846-84.535-30.846"/>
<path style="fill:#064E7F;" d="M185.543,290.997c-5.782-9.444-10.138-19.306-13.288-29.397L46.649,277
	c-4.435,29.57,1.071,60.755,17.888,88.19c16.857,27.435,42.165,46.482,70.506,55.95l70.672-104.976
	C198.154,308.768,191.317,300.41,185.543,290.997z"/>
<path style="fill:#0B3A60;" d="M205.716,316.164c-7.562-7.389-14.399-15.754-20.181-25.159
	c-5.782-9.444-10.138-19.306-13.288-29.397L46.649,277c-4.435,29.57,1.071,60.755,17.888,88.19"/>
<path style="fill:#064E7F;" d="M318.592,290.997c5.782-9.444,10.122-19.306,13.288-29.397L457.486,277
	c4.427,29.57-1.071,60.755-17.888,88.19c-16.872,27.435-42.173,46.482-70.506,55.95l-70.664-104.976
	C305.981,308.768,312.818,300.41,318.592,290.997z"/>
<g>
	<path style="fill:#0B3A60;" d="M298.427,316.164c7.554-7.389,14.391-15.754,20.173-25.159c5.782-9.444,10.122-19.306,13.288-29.397
		l125.605,15.399c4.427,29.57-1.071,60.755-17.888,88.19"/>
	<circle style="fill:#0B3A60;" cx="252.064" cy="252.062" r="36.478"/>
</g>
<path style="fill:#064E7F;" d="M226.267,226.265c14.234-14.234,37.368-14.234,51.602,0s14.234,37.368,0,51.602"/>
</svg>